<svg version="1.1" id="Layer_1" xmlns="http://www.w3.org/2000/svg" xmlns:xlink="http://www.w3.org/1999/xlink" x="0px" y="0px" viewBox="0 0 19.418 27.9" enable-background="new 0 0 19.418 27.9" xml:space="preserve">
<path fill="none" stroke="#F99B1F" stroke-miterlimit="10" d="M8.137,1.288c0.055,0.446,0.08,0.903,0.043,1.396  C8.061,4.277,7.55,5.731,6.619,7.128C5.913,8.187,5.056,9.098,4.227,9.98l-0.051,0.054c-0.038,0.041-3.642,3.942-3.676,8.29v0.055  C0.53,23.436,4.58,27.4,9.718,27.4c5.065,0,9.192-4.127,9.2-9.2l-0.003-0.253c0-0.028-0.015-1.874-0.997-3.533  c-0.005,2.092-1.708,3.793-3.801,3.793c-1.142-0.001-2.196-0.428-2.897-1.171c-0.652-0.691-0.966-1.601-0.907-2.63l0.005-0.071  c0.087-0.563,0.154-0.864,0.341-1.27l0.023-0.044C10.837,12.761,14.234,6.89,8.137,1.288z"/>
</svg>